PathFileType	4	(X/Y/Z)	C:\Users\Basilio\Documents\Thesis Gigler\squatting_fais\c3dfiles\058\SLS_back_pre4\markers_experimental.trc
DataRate	CameraRate	NumFrames	NumMarkers	Units	OrigDataRate	OrigDataStartFrame	OrigNumFrames
200.000000	200.000000	4	61	mm	200.000000	639	1279
Frame#	Time	FHD			LBHD			RBHD			C7			T10			CLAV			LSHO			LUUPA			LMUPA			LDUPA			LLEP			LMEP			LRAD			LUL			LRFIN			RSHO			RUPA1			RMUPA			RDUPA			RLEP			RMEP			RRAD			RUL			RUFIN			LASI			RASI			USACR			LSACR			RSACR			LTHI1			LTHI2			LTHI3			LTHI4			LLFC			LMFC			LTIB1			LTIB2			LTIB3			LTIB4			LLMAL			LMMAL			LHEE			LMT1			LMT2			LMT5			RTHI			RTHI2			RTHI3			RTHI4			RLFC			RMFC			RTIB1			RTIB2			RTIB3			RTIB4			RLMAL			RMMAL			RHEE			RMT1			RMT2			RMT5			
		X1	Y1	Z1	X2	Y2	Z2	X3	Y3	Z3	X4	Y4	Z4	X5	Y5	Z5	X6	Y6	Z6	X7	Y7	Z7	X8	Y8	Z8	X9	Y9	Z9	X10	Y10	Z10	X11	Y11	Z11	X12	Y12	Z12	X13	Y13	Z13	X14	Y14	Z14	X15	Y15	Z15	X16	Y16	Z16	X17	Y17	Z17	X18	Y18	Z18	X19	Y19	Z19	X20	Y20	Z20	X21	Y21	Z21	X22	Y22	Z22	X23	Y23	Z23	X24	Y24	Z24	X25	Y25	Z25	X26	Y26	Z26	X27	Y27	Z27	X28	Y28	Z28	X29	Y29	Z29	X30	Y30	Z30	X31	Y31	Z31	X32	Y32	Z32	X33	Y33	Z33	X34	Y34	Z34	X35	Y35	Z35	X36	Y36	Z36	X37	Y37	Z37	X38	Y38	Z38	X39	Y39	Z39	X40	Y40	Z40	X41	Y41	Z41	X42	Y42	Z42	X43	Y43	Z43	X44	Y44	Z44	X45	Y45	Z45	X46	Y46	Z46	X47	Y47	Z47	X48	Y48	Z48	X49	Y49	Z49	X50	Y50	Z50	X51	Y51	Z51	X52	Y52	Z52	X53	Y53	Z53	X54	Y54	Z54	X55	Y55	Z55	X56	Y56	Z56	X57	Y57	Z57	X58	Y58	Z58	X59	Y59	Z59	X60	Y60	Z60	X61	Y61	Z61	

640	3.195	-181.4023132324219	1603.479370117188	-642.3318481445314	-337.1624755859376	1566.903198242188	-726.5097656250001	-160.3937225341797	1609.4814453125	-784.8145751953127	-366.0621032714844	1418.674682617188	-740.5490722656251	-448.6605834960939	1132.014526367188	-740.3577270507814	-218.2491760253907	1348.256225585938	-716.2254638671876	-219.3783111572266	1412.987670898438	-863.1823730468752	-62.78931808471681	1361.52783203125	-965.5903320312502	-42.63359069824219	1399.307739257813	-937.8583984375002	5.432028770446778	1365.061401367188	-951.819519042969	78.74203491210939	1373.35498046875	-930.5098876953127	84.60347747802736	1318.029418945313	-895.4158325195315	337.4796752929688	1403.19482421875	-817.2307739257815	342.0302124023438	1425.861450195313	-895.3273925781252	436.1008300781251	1436.608154296875	-812.366882324219	-247.8639068603516	1417.740966796875	-574.7078247070314	-96.72473907470706	1342.28125	-464.3510742187501	-75.5001678466797	1381.109130859375	-488.655487060547	-28.34981918334962	1353.120971679688	-466.1774902343751	40.21366882324219	1348.889892578125	-475.061248779297	49.47614669799806	1290.821411132813	-525.7704467773439	nan	nan	nan	305.0457763671876	1405.004028320313	-479.9409179687501	396.3468627929689	1431.2431640625	-545.2329711914064	-329.4309082031251	886.0889892578127	-861.8205566406252	-330.7551269531251	901.4245605468752	-623.9980468750001	-495.0709533691407	1023.941650390625	-739.3089599609376	-509.1166381835939	993.472595214844	-765.9287109375001	-509.4281616210939	996.268249511719	-707.7108154296876	-380.3263549804688	619.8106689453126	-944.2881469726565	-346.8582153320313	540.6516723632814	-945.2291259765627	-303.1358032226563	540.2610473632814	-920.0650024414065	-375.5736389160157	487.0824279785157	-940.0078735351565	-391.6221008300782	408.4845581054689	-928.2778930664065	-371.2130432128907	385.5444641113282	-798.4268188476565	-484.5454711914064	320.0986328125001	-888.0358886718752	-536.9153442382814	376.4217834472657	-929.550964355469	-537.0307006835939	335.6492004394532	-915.914001464844	-611.0457763671876	315.4792480468751	-882.156188964844	-807.6033935546877	368.3454284667969	-869.1163330078127	-789.0166015625002	317.6569213867188	-787.1956787109377	-804.0853271484377	416.6854858398439	-797.411071777344	-908.2994384765627	220.8410339355469	-814.4290771484377	-912.8579711914065	226.5374755859376	-860.1633911132815	-923.612731933594	285.4942932128907	-898.5339965820315	-354.9397583007813	720.7803344726564	-561.8493041992189	-292.0684814453126	698.0957641601564	-571.0484619140626	-265.1829223632813	716.2429199218751	-576.2023315429689	-272.9915771484376	620.1585083007814	-595.1887207031251	-184.9905548095703	486.0093688964845	-636.4776611328126	-173.1309967041016	498.0136108398439	-769.2473144531252	-208.6065673828126	311.4610900878907	-747.6567382812501	-263.8989868164063	244.2103118896485	-678.5588378906251	-240.9640808105469	231.6743469238282	-718.6499633789064	-272.8520202636719	199.8985595703126	-754.0557250976564	-361.9468078613282	114.5080337524414	-706.0987548828126	-335.3229675292969	135.1309356689453	-796.257751464844	-436.3399658203126	100.3864898681641	-767.2495727539064	-227.7671508789063	58.432430267334	-778.400573730469	-222.0940399169922	62.15167236328126	-725.8931884765626	-272.5231018066407	31.53864097595216	-674.3717041015626	
641	3.2	-180.7064971923828	1602.692626953125	-642.8463134765626	-336.8042602539063	1565.96142578125	-726.7728271484376	-160.1361236572266	1608.443481445313	-785.0960083007815	-365.5625610351563	1418.021362304688	-740.6423950195314	-448.5350036621095	1131.311279296875	-740.4873657226564	-217.713119506836	1347.529541015625	-716.3601684570314	-218.7287597656251	1411.756591796875	-863.4545898437502	-62.46331787109376	1360.416748046875	-965.7066040039065	-42.37528228759766	1398.275756835938	-937.9814453125002	5.953633308410645	1364.118041992188	-952.040222167969	79.13679504394533	1372.566162109375	-930.6691894531252	84.6634979248047	1317.091796875	-895.3626098632815	337.7026977539063	1401.960693359375	-817.359069824219	342.3110046386719	1424.9775390625	-895.5859985351565	436.5490112304689	1435.84912109375	-812.5337524414065	-247.3977050781251	1416.824829101563	-575.0100097656251	-96.00248718261722	1341.509643554688	-464.5025939941407	-75.24291229248048	1380.109619140625	-489.0992126464845	-27.77141952514649	1352.406494140625	-466.3745117187501	40.49812316894532	1347.70947265625	-475.1168823242189	49.88581466674806	1289.9482421875	-525.9846801757814	nan	nan	nan	306.0669555664063	1404.698364257813	-479.8669433593751	396.9992980957032	1430.54345703125	-545.3933105468751	-330.0314331054688	885.0240478515627	-861.888366699219	-330.7811889648438	900.911071777344	-623.9960327148439	-495.1581420898439	1023.510986328125	-739.2026977539064	-509.325897216797	993.062927246094	-765.7970581054689	-509.5370483398439	995.6297607421877	-707.4862670898439	-380.9995422363282	618.9752807617189	-944.1672973632815	-347.3289794921876	539.9151000976564	-945.2298583984377	-303.6263427734376	539.5139160156251	-919.9695434570315	-376.1509094238282	486.4213867187501	-939.8570556640627	-392.2164001464845	407.8006286621095	-928.203063964844	-371.5172119140626	384.6287536621095	-798.3541259765627	-484.9320373535157	319.0728149414063	-887.884948730469	-537.4451904296876	375.5691528320313	-929.435729980469	-537.4935913085939	334.7961120605469	-915.8381347656252	-611.7432250976564	314.0958862304688	-881.7503051757815	-808.0362548828127	367.5917358398438	-868.8898925781252	-789.440368652344	316.7784118652344	-787.330749511719	-804.2447509765627	415.9553222656251	-797.1752929687502	-908.5984497070315	220.0714263916016	-814.513854980469	-914.6673583984377	224.6736297607422	-860.7125244140627	-924.2300415039065	285.1434326171876	-898.273620605469	-354.5954895019532	720.2997436523439	-561.9217529296876	-291.9212036132813	697.7834472656251	-571.2381591796876	-265.1336364746094	715.9881591796876	-576.3092041015626	-272.5930480957032	619.7144165039064	-595.5772705078126	-184.5518188476563	485.9851074218751	-637.1109619140626	-172.8445434570313	497.7969360351564	-770.0584716796877	-208.5191497802735	311.2845458984376	-748.0175170898439	-263.8214416503907	244.2214508056641	-678.7599487304689	-240.8729095458985	231.9090576171876	-718.9451904296876	-272.8560485839844	199.8434600830079	-754.3347167968751	-361.9133911132813	114.4199600219727	-706.0875854492189	-335.1986083984376	135.0456237792969	-796.2885742187502	-436.3139953613282	100.4031295776367	-767.1879272460939	-227.8108978271485	58.36352539062501	-778.4487304687502	-222.1315917968751	62.13845062255861	-725.9212036132814	-272.5369873046876	31.52959632873536	-674.4331665039064	
642	3.205	-180.2175903320313	1601.769287109375	-642.9376831054689	-336.1500549316407	1564.888916015625	-726.9113769531251	-159.7179565429688	1607.416748046875	-785.3841552734377	-365.0710754394532	1417.03271484375	-740.8398437500001	-448.5281372070314	1130.565795898438	-740.4071044921876	-217.0897064208985	1346.397705078125	-716.4618530273439	-218.7598266601563	1410.8818359375	-863.4519042968752	-62.15547180175783	1359.635131835938	-965.8110961914065	-41.90397262573243	1397.294921875	-938.0864257812502	6.093400955200197	1363.094482421875	-952.070739746094	79.3833465576172	1371.404052734375	-930.8752441406252	85.34056854248048	1315.973999023438	-895.7274169921877	338.1577148437501	1401.282470703125	-817.6133422851565	342.6210937500001	1424.013427734375	-895.743347167969	436.559783935547	1435.140380859375	-812.8152465820315	-246.4552001953126	1415.853271484375	-574.9423217773439	-95.65538024902345	1340.596557617188	-464.6730957031251	-74.46350097656251	1379.403930664063	-489.2053527832032	-27.17177772521973	1351.537963867188	-466.6370544433595	41.02476501464844	1347.082153320313	-475.3447570800782	50.1285972595215	1289.176513671875	-526.3075561523439	nan	nan	nan	306.6473999023438	1404.032348632813	-480.039276123047	397.4370422363282	1429.96337890625	-545.5359497070314	-330.3728332519532	884.225769042969	-861.942810058594	-330.8070068359376	900.433776855469	-624.0504760742189	-495.1744995117189	1022.765075683594	-739.1324462890626	-509.6268920898439	992.1693115234377	-765.4969482421876	-509.6465148925782	994.993591308594	-707.2355957031251	-381.7381591796876	618.2415771484376	-943.8831787109377	-347.8503417968751	539.1852416992189	-945.1470947265627	-304.2327880859376	538.6496582031251	-919.9318847656252	-376.7489929199219	485.4188232421876	-939.8554687500002	-392.5081481933595	406.9877929687501	-928.3612060546877	-371.7112121582032	383.7643737792969	-798.4529418945315	-485.1089172363282	318.1404113769532	-888.2602539062502	-537.5611572265626	374.7720031738282	-929.3905029296877	-537.8077392578126	333.9753112792969	-915.824157714844	-611.9003295898439	314.4490051269532	-882.2405395507815	-808.167907714844	366.8271789550782	-868.7474365234377	-789.922302246094	315.8908996582032	-786.4661254882815	-804.6587524414065	415.0076599121095	-796.8533935546877	-909.5804443359377	218.8262023925782	-814.0615844726565	-913.4499511718752	224.7017364501954	-860.047546386719	-924.494812011719	284.4993591308594	-898.210632324219	-354.5785522460938	719.8207397460939	-561.8827514648439	-291.7236022949219	697.4605712890626	-571.3877563476564	-265.0508117675782	715.7000122070314	-576.5942382812501	-272.2476196289063	619.3472290039064	-596.0017700195314	-183.851303100586	485.954071044922	-637.6830444335939	-172.8132934570313	497.7434082031251	-770.6602783203127	-208.3628540039063	311.1454772949219	-748.2753906250001	-263.7447814941407	244.1450958251954	-678.9269409179689	-240.7242889404297	231.8182525634766	-719.3431396484376	-272.8041992187501	199.8583221435547	-754.5599365234376	-361.8988952636719	114.3678207397461	-706.1192626953126	-335.2002563476563	134.9464721679688	-796.3084106445315	-436.3414001464845	100.4094848632813	-767.1531982421876	-227.7455444335938	58.41331100463869	-778.5026855468752	-222.1032867431641	62.16159057617189	-726.0065307617189	-272.5266723632813	31.55017280578614	-674.4505615234376	
643	3.21	-179.7859497070313	1600.652587890625	-643.2854003906251	-335.9802246093751	1563.60791015625	-727.1679077148439	-159.1597747802735	1606.581298828125	-785.5217895507815	-364.6061706542969	1416.14794921875	-740.8682250976564	-448.4216918945314	1129.700805664063	-740.3988647460939	-216.6646423339844	1345.375610351563	-716.5721435546876	-218.2171783447266	1410.003662109375	-863.5332641601565	-61.70576858520509	1358.392944335938	-965.9612426757815	-41.64120101928712	1396.431762695313	-938.2883911132815	6.627678394317629	1362.082397460938	-952.3018188476565	79.68169403076173	1370.48828125	-931.0015869140627	85.00422668457033	1315.307739257813	-895.4058837890627	338.6757507324219	1400.6552734375	-817.7937622070315	342.8023376464844	1423.155883789063	-895.8521728515627	436.8808898925782	1434.453735351563	-813.0156250000002	-246.0172424316407	1415.002197265625	-575.0054931640626	-95.41242980957033	1339.466186523438	-464.8912658691407	-74.08940887451173	1378.113525390625	-489.335418701172	-26.74314498901368	1350.66357421875	-466.7754516601564	41.60434341430665	1346.158203125	-475.5905761718751	50.8437957763672	1288.323974609375	-526.3420410156251	nan	nan	nan	307.1960754394532	1403.2197265625	-480.2123413085939	398.0459289550782	1429.416259765625	-545.7210693359376	-331.0725402832032	883.1574707031252	-862.0700683593752	-330.6591186523438	899.5789184570315	-624.1529541015626	-495.2512817382814	1021.9296875	-738.9190063476564	-509.7988586425782	991.2486572265627	-765.2520751953126	-509.7439575195314	994.3775634765627	-707.0640869140626	-382.2325134277344	617.3001708984376	-943.858581542969	-348.5587463378907	538.2414550781251	-945.084411621094	-304.8887634277344	537.7727050781251	-919.9271240234377	-377.2979736328126	484.7580871582032	-939.777038574219	-392.9586181640626	406.0470275878907	-928.322204589844	-372.2064514160157	382.5629577636719	-798.3687744140627	-485.3762817382814	317.5235290527344	-888.667663574219	-538.2221069335939	374.1417236328126	-929.2048950195315	-538.3381347656251	333.1199645996094	-915.6271972656252	-612.0514526367189	312.7224731445313	-881.7725219726565	-808.6409301757815	366.0329895019532	-868.4371337890627	-790.362243652344	315.1620788574219	-786.8074340820315	-805.0681152343752	414.1341857910157	-796.5234375000002	-909.9707031250002	218.0673828125001	-814.017028808594	-913.799011230469	224.1732482910157	-860.0401611328127	-924.9270019531252	283.8293151855469	-898.0310668945315	-354.3899841308594	719.2680664062501	-561.9522094726564	-291.2556762695313	697.0391845703126	-571.6043090820314	-264.9984130859376	715.4561157226564	-576.7263183593751	-272.0669250488282	619.1867675781251	-596.2299194335939	-183.1840057373047	485.8972778320314	-638.3291015625001	-172.5843963623047	497.7445068359376	-771.427673339844	-208.3008880615235	311.0904541015626	-748.6896972656251	-263.3999023437501	244.2621765136719	-679.1801147460939	-240.414779663086	231.9207916259766	-719.7172851562501	-272.6802673339844	199.858139038086	-754.7990722656251	-361.9480285644532	114.3513488769532	-706.0660400390626	-335.2343750000001	134.9509429931641	-796.3115844726565	-436.3212890625001	100.4176025390625	-767.1338500976564	-227.7991943359376	58.42604064941408	-778.526062011719	-222.1259460449219	62.17913818359376	-725.9909057617189	-272.5148010253907	31.55180931091309	-674.4743041992189	
